<?xml version="1.0" encoding="utf-8"?>
<!-- Svg Vector Icons : http://www.onlinewebfonts.com/icon -->
<!DOCTYPE svg PUBLIC "-//W3C//DTD SVG 1.1//EN" "http://www.w3.org/Graphics/SVG/1.1/DTD/svg11.dtd">
<svg version="1.1" xmlns="http://www.w3.org/2000/svg" xmlns:xlink="http://www.w3.org/1999/xlink" x="0px" y="0px" viewBox="0 0 1000 1000" enable-background="new 0 0 1000 1000" xml:space="preserve">
<g><path d="M792.8,188.8C694.4,85.8,581.9-15.5,449.2,88.4c-51.1,40.1-74.4,97.1-136.5,133.2c-51.9,30.1-111.6,20.8-164,40.3C-9.7,320.9-4,409.8,28.5,562.9c18.4,86.5,87.7,381.5,208.5,392c122.4,10.6,120.7-212,171.6-275.5c43.9-54.8,167-123.3,232.6-138.7c89-20.8,247.3,80.9,321.6,12.5C1064.6,459.6,852.4,251.1,792.8,188.8 M308.1,609.7c-62.9,36.3-143.2,14.8-179.5-48.1c-36.3-62.9-14.8-143.2,48.1-179.5c62.9-36.3,143.2-14.8,179.5,48.1C392.4,493.1,370.9,573.4,308.1,609.7 M542.4,196.6c5.5-20.5,26.6-32.7,47.1-27.2c20.5,5.5,32.7,26.6,27.2,47.1c-5.5,20.5-26.5,32.7-47.1,27.2C549.1,238.1,536.9,217.1,542.4,196.6 M542.8,343.6c-20.5-5.5-32.7-26.6-27.2-47.1c5.5-20.5,26.6-32.7,47.1-27.2c20.5,5.5,32.7,26.6,27.2,47.1C584.4,336.9,563.3,349.1,542.8,343.6 M686.3,342.2c-5.5,20.5-26.5,32.7-47.1,27.2c-20.5-5.5-32.7-26.6-27.2-47.1c5.5-20.5,26.6-32.7,47.1-27.2C679.6,300.7,691.8,321.7,686.3,342.2 M713.1,242.3c-5.5,20.5-26.5,32.7-47.1,27.2c-20.5-5.5-32.7-26.6-27.2-47.1c5.5-20.5,26.6-32.7,47.1-27.2C706.4,200.7,718.6,221.8,713.1,242.3 M203.8,429c-36.9,21.4-49.5,68.5-28.2,105.5C196.9,571.4,244,584,281,562.7c36.9-21.4,49.5-68.5,28.3-105.5C287.9,420.4,240.7,407.8,203.8,429"/></g>
</svg>